<svg id="visual" viewBox="0 0 900 600" width="900" height="600" xmlns="http://www.w3.org/2000/svg" xmlns:xlink="http://www.w3.org/1999/xlink" version="1.1"><rect x="0" y="0" width="900" height="600" fill="#001220"></rect><defs><linearGradient id="grad1_0" x1="33.3%" y1="100%" x2="100%" y2="0%"><stop offset="20%" stop-color="#001220" stop-opacity="1"></stop><stop offset="80%" stop-color="#001220" stop-opacity="1"></stop></linearGradient></defs><defs><linearGradient id="grad2_0" x1="0%" y1="100%" x2="66.7%" y2="0%"><stop offset="20%" stop-color="#001220" stop-opacity="1"></stop><stop offset="80%" stop-color="#001220" stop-opacity="1"></stop></linearGradient></defs><g transform="translate(900, 600)"><path d="M-486.7 0C-467.8 -64 -448.9 -128 -412.1 -170.7C-375.2 -213.4 -320.4 -234.8 -284.3 -284.3C-248.1 -333.7 -230.5 -411.3 -186.3 -449.7C-142 -488.1 -71 -487.4 0 -486.7L0 0Z" fill="#FBAE3C"></path></g><g transform="translate(0, 0)"><path d="M486.7 0C443.9 53.6 401 107.3 368.6 152.7C336.3 198.1 314.5 235.2 289.2 289.2C263.9 343.2 235.1 414 186.3 449.7C137.5 485.4 68.7 486.1 0 486.7L0 0Z" fill="#FBAE3C"></path></g></svg>